<mxfile host="app.diagrams.net" modified="2021-03-27T14:20:18.178Z" agent="5.0 (Windows NT 10.0; Win64; x64) AppleWebKit/537.36 (KHTML, like Gecko) Chrome/89.0.4389.90 Safari/537.36" etag="aB9topQ_0jxr9bKIenjX" version="14.5.3" type="github">
  <diagram id="kgpKYQtTHZ0yAKxKKP6v" name="Page-1">
    <mxGraphModel dx="1038" dy="548" grid="1" gridSize="10" guides="1" tooltips="1" connect="1" arrows="1" fold="1" page="1" pageScale="1" pageWidth="850" pageHeight="1100" math="0" shadow="0">
      <root>
        <mxCell id="0" />
        <mxCell id="1" parent="0" />
        <mxCell id="QR9soYsz2g1UOoATqFUM-1" value="Aszteroida lépés" style="shape=umlFrame;whiteSpace=wrap;html=1;width=80;height=30;" vertex="1" parent="1">
          <mxGeometry x="70" y="50" width="510" height="420" as="geometry" />
        </mxCell>
        <mxCell id="QR9soYsz2g1UOoATqFUM-19" value="opt" style="shape=umlFrame;whiteSpace=wrap;html=1;" vertex="1" parent="1">
          <mxGeometry x="140" y="180" width="400" height="200" as="geometry" />
        </mxCell>
        <mxCell id="QR9soYsz2g1UOoATqFUM-2" value="a: Aszteroida" style="shape=umlLifeline;perimeter=lifelinePerimeter;whiteSpace=wrap;html=1;container=1;collapsible=0;recursiveResize=0;outlineConnect=0;" vertex="1" parent="1">
          <mxGeometry x="240" y="80" width="100" height="390" as="geometry" />
        </mxCell>
        <mxCell id="QR9soYsz2g1UOoATqFUM-3" value="" style="html=1;points=[];perimeter=orthogonalPerimeter;" vertex="1" parent="QR9soYsz2g1UOoATqFUM-2">
          <mxGeometry x="45" y="90" width="10" height="270" as="geometry" />
        </mxCell>
        <mxCell id="QR9soYsz2g1UOoATqFUM-6" value="1. Lepes()" style="html=1;verticalAlign=bottom;endArrow=block;" edge="1" parent="1" source="QR9soYsz2g1UOoATqFUM-10" target="QR9soYsz2g1UOoATqFUM-2">
          <mxGeometry width="80" relative="1" as="geometry">
            <mxPoint x="150" y="170" as="sourcePoint" />
            <mxPoint x="240" y="170" as="targetPoint" />
            <Array as="points">
              <mxPoint x="290" y="170" />
            </Array>
          </mxGeometry>
        </mxCell>
        <mxCell id="QR9soYsz2g1UOoATqFUM-7" value="" style="html=1;verticalAlign=bottom;endArrow=open;dashed=1;endSize=8;exitX=-0.26;exitY=0.981;exitDx=0;exitDy=0;exitPerimeter=0;" edge="1" parent="1" source="QR9soYsz2g1UOoATqFUM-3" target="QR9soYsz2g1UOoATqFUM-10">
          <mxGeometry relative="1" as="geometry">
            <mxPoint x="320" y="410" as="sourcePoint" />
            <mxPoint x="160" y="454" as="targetPoint" />
          </mxGeometry>
        </mxCell>
        <mxCell id="QR9soYsz2g1UOoATqFUM-8" value="ny: Nyersanyag" style="shape=umlLifeline;perimeter=lifelinePerimeter;whiteSpace=wrap;html=1;container=1;collapsible=0;recursiveResize=0;outlineConnect=0;" vertex="1" parent="1">
          <mxGeometry x="400" y="80" width="100" height="400" as="geometry" />
        </mxCell>
        <mxCell id="QR9soYsz2g1UOoATqFUM-21" value="" style="html=1;points=[];perimeter=orthogonalPerimeter;" vertex="1" parent="QR9soYsz2g1UOoATqFUM-8">
          <mxGeometry x="45" y="140" width="10" height="80" as="geometry" />
        </mxCell>
        <mxCell id="QR9soYsz2g1UOoATqFUM-10" value="Controller" style="shape=umlLifeline;participant=umlActor;perimeter=lifelinePerimeter;whiteSpace=wrap;html=1;container=1;collapsible=0;recursiveResize=0;verticalAlign=top;spacingTop=36;outlineConnect=0;" vertex="1" parent="1">
          <mxGeometry x="110" y="85" width="20" height="385" as="geometry" />
        </mxCell>
        <mxCell id="QR9soYsz2g1UOoATqFUM-20" value="[kulsoRetegek == 0 &amp;amp;&amp;amp; napkozelben == true]" style="text;html=1;strokeColor=none;fillColor=none;align=center;verticalAlign=middle;whiteSpace=wrap;rounded=0;" vertex="1" parent="1">
          <mxGeometry x="150" y="220" width="130" height="20" as="geometry" />
        </mxCell>
        <mxCell id="QR9soYsz2g1UOoATqFUM-22" value="2. Megfurva()" style="html=1;verticalAlign=bottom;endArrow=block;entryX=0;entryY=0;" edge="1" target="QR9soYsz2g1UOoATqFUM-21" parent="1" source="QR9soYsz2g1UOoATqFUM-3">
          <mxGeometry relative="1" as="geometry">
            <mxPoint x="380" y="220" as="sourcePoint" />
          </mxGeometry>
        </mxCell>
        <mxCell id="QR9soYsz2g1UOoATqFUM-23" value="" style="html=1;verticalAlign=bottom;endArrow=open;dashed=1;endSize=8;exitX=0;exitY=0.95;" edge="1" source="QR9soYsz2g1UOoATqFUM-21" parent="1" target="QR9soYsz2g1UOoATqFUM-3">
          <mxGeometry relative="1" as="geometry">
            <mxPoint x="380" y="296" as="targetPoint" />
          </mxGeometry>
        </mxCell>
      </root>
    </mxGraphModel>
  </diagram>
</mxfile>
